<mxfile host="app.diagrams.net" modified="2023-05-17T15:49:27.284Z" agent="Mozilla/5.0 (Windows NT 10.0; Win64; x64) AppleWebKit/537.36 (KHTML, like Gecko) Chrome/113.0.0.0 Safari/537.36 Edg/113.0.1774.42" etag="W1y4qqN5OSGrY-En22a1" version="21.3.2" type="device">
  <diagram name="Page-1" id="Vf9_vrIpa7qaZsOBXVjF">
    <mxGraphModel dx="1455" dy="764" grid="1" gridSize="10" guides="1" tooltips="1" connect="1" arrows="1" fold="1" page="1" pageScale="1" pageWidth="827" pageHeight="1169" math="0" shadow="0">
      <root>
        <mxCell id="0" />
        <mxCell id="1" parent="0" />
        <mxCell id="Tac1BlyIh8F7AcOJ1vz7-37" style="edgeStyle=orthogonalEdgeStyle;rounded=0;orthogonalLoop=1;jettySize=auto;html=1;" parent="1" source="Tac1BlyIh8F7AcOJ1vz7-4" edge="1">
          <mxGeometry relative="1" as="geometry">
            <Array as="points">
              <mxPoint x="245" y="250" />
              <mxPoint x="245" y="300" />
            </Array>
            <mxPoint x="410" y="300" as="targetPoint" />
          </mxGeometry>
        </mxCell>
        <mxCell id="Tac1BlyIh8F7AcOJ1vz7-4" value="" style="shape=umlActor;verticalLabelPosition=bottom;verticalAlign=top;html=1;" parent="1" vertex="1">
          <mxGeometry x="30" y="205" width="50" height="90" as="geometry" />
        </mxCell>
        <mxCell id="Tac1BlyIh8F7AcOJ1vz7-13" value="Admin" style="text;html=1;align=center;verticalAlign=middle;resizable=0;points=[];autosize=1;strokeColor=none;fillColor=none;" parent="1" vertex="1">
          <mxGeometry x="25" y="295" width="60" height="30" as="geometry" />
        </mxCell>
        <mxCell id="Tac1BlyIh8F7AcOJ1vz7-14" value="" style="rounded=0;whiteSpace=wrap;html=1;" parent="1" vertex="1">
          <mxGeometry x="140" y="150" width="810" height="790" as="geometry" />
        </mxCell>
        <mxCell id="Tac1BlyIh8F7AcOJ1vz7-15" value="Gestion du stock" style="rounded=0;whiteSpace=wrap;html=1;" parent="1" vertex="1">
          <mxGeometry x="140" y="150" width="180" height="30" as="geometry" />
        </mxCell>
        <mxCell id="Tac1BlyIh8F7AcOJ1vz7-24" value="Authentification" style="ellipse;whiteSpace=wrap;html=1;" parent="1" vertex="1">
          <mxGeometry x="770" y="317.5" width="120" height="80" as="geometry" />
        </mxCell>
        <mxCell id="Tac1BlyIh8F7AcOJ1vz7-38" style="rounded=0;orthogonalLoop=1;jettySize=auto;html=1;endArrow=none;endFill=0;" parent="1" edge="1">
          <mxGeometry relative="1" as="geometry">
            <mxPoint x="130" y="250" as="targetPoint" />
            <mxPoint x="410" y="250" as="sourcePoint" />
          </mxGeometry>
        </mxCell>
        <mxCell id="fbJliasXUYRfLEAVH-bt-9" style="edgeStyle=orthogonalEdgeStyle;rounded=0;orthogonalLoop=1;jettySize=auto;html=1;endArrow=open;endFill=0;dashed=1;" parent="1" source="Tac1BlyIh8F7AcOJ1vz7-36" target="Tac1BlyIh8F7AcOJ1vz7-24" edge="1">
          <mxGeometry relative="1" as="geometry">
            <Array as="points">
              <mxPoint x="830" y="245" />
            </Array>
          </mxGeometry>
        </mxCell>
        <mxCell id="Tac1BlyIh8F7AcOJ1vz7-36" value="Voir et modifier leur profile" style="ellipse;whiteSpace=wrap;html=1;" parent="1" vertex="1">
          <mxGeometry x="410" y="212.5" width="120" height="65" as="geometry" />
        </mxCell>
        <mxCell id="fbJliasXUYRfLEAVH-bt-3" style="edgeStyle=orthogonalEdgeStyle;rounded=0;orthogonalLoop=1;jettySize=auto;html=1;endArrow=none;endFill=0;" parent="1" edge="1">
          <mxGeometry relative="1" as="geometry">
            <mxPoint x="220" y="250" as="targetPoint" />
            <mxPoint x="420" y="360" as="sourcePoint" />
            <Array as="points">
              <mxPoint x="414" y="360" />
              <mxPoint x="220" y="360" />
            </Array>
          </mxGeometry>
        </mxCell>
        <mxCell id="fbJliasXUYRfLEAVH-bt-10" value="&amp;lt;&amp;lt;include&amp;gt;&amp;gt;" style="text;html=1;align=center;verticalAlign=middle;resizable=0;points=[];autosize=1;strokeColor=none;fillColor=none;" parent="1" vertex="1">
          <mxGeometry x="665" y="218" width="90" height="30" as="geometry" />
        </mxCell>
        <mxCell id="EWWxT-Iu7-5br_9u1XaG-26" style="rounded=0;orthogonalLoop=1;jettySize=auto;html=1;dashed=1;endArrow=open;endFill=0;" edge="1" parent="1" source="EWWxT-Iu7-5br_9u1XaG-1" target="Tac1BlyIh8F7AcOJ1vz7-24">
          <mxGeometry relative="1" as="geometry" />
        </mxCell>
        <mxCell id="EWWxT-Iu7-5br_9u1XaG-1" value="Gestion des utilisateurs" style="ellipse;whiteSpace=wrap;html=1;" vertex="1" parent="1">
          <mxGeometry x="420" y="325" width="120" height="65" as="geometry" />
        </mxCell>
        <mxCell id="EWWxT-Iu7-5br_9u1XaG-11" style="edgeStyle=orthogonalEdgeStyle;rounded=0;orthogonalLoop=1;jettySize=auto;html=1;endArrow=none;endFill=0;" edge="1" parent="1" source="EWWxT-Iu7-5br_9u1XaG-2">
          <mxGeometry relative="1" as="geometry">
            <mxPoint x="480" y="400" as="targetPoint" />
            <Array as="points">
              <mxPoint x="420" y="410" />
              <mxPoint x="481" y="410" />
            </Array>
          </mxGeometry>
        </mxCell>
        <mxCell id="EWWxT-Iu7-5br_9u1XaG-2" value="Ajouter&amp;nbsp;" style="ellipse;whiteSpace=wrap;html=1;" vertex="1" parent="1">
          <mxGeometry x="400" y="431" width="66" height="40" as="geometry" />
        </mxCell>
        <mxCell id="EWWxT-Iu7-5br_9u1XaG-10" style="edgeStyle=orthogonalEdgeStyle;rounded=0;orthogonalLoop=1;jettySize=auto;html=1;" edge="1" parent="1" source="EWWxT-Iu7-5br_9u1XaG-3" target="EWWxT-Iu7-5br_9u1XaG-1">
          <mxGeometry relative="1" as="geometry">
            <Array as="points">
              <mxPoint x="353" y="410" />
              <mxPoint x="480" y="410" />
            </Array>
          </mxGeometry>
        </mxCell>
        <mxCell id="EWWxT-Iu7-5br_9u1XaG-3" value="Voir" style="ellipse;whiteSpace=wrap;html=1;" vertex="1" parent="1">
          <mxGeometry x="320" y="431" width="66" height="40" as="geometry" />
        </mxCell>
        <mxCell id="EWWxT-Iu7-5br_9u1XaG-13" style="edgeStyle=orthogonalEdgeStyle;rounded=0;orthogonalLoop=1;jettySize=auto;html=1;endArrow=none;endFill=0;" edge="1" parent="1" source="EWWxT-Iu7-5br_9u1XaG-4">
          <mxGeometry relative="1" as="geometry">
            <mxPoint x="480" y="390" as="targetPoint" />
            <Array as="points">
              <mxPoint x="593" y="410" />
              <mxPoint x="481" y="410" />
            </Array>
          </mxGeometry>
        </mxCell>
        <mxCell id="EWWxT-Iu7-5br_9u1XaG-4" value="Supprimer" style="ellipse;whiteSpace=wrap;html=1;" vertex="1" parent="1">
          <mxGeometry x="560" y="431" width="66" height="40" as="geometry" />
        </mxCell>
        <mxCell id="EWWxT-Iu7-5br_9u1XaG-12" style="edgeStyle=orthogonalEdgeStyle;rounded=0;orthogonalLoop=1;jettySize=auto;html=1;endArrow=none;endFill=0;" edge="1" parent="1" source="EWWxT-Iu7-5br_9u1XaG-6">
          <mxGeometry relative="1" as="geometry">
            <mxPoint x="480" y="400" as="targetPoint" />
            <Array as="points">
              <mxPoint x="520" y="410" />
              <mxPoint x="481" y="410" />
            </Array>
          </mxGeometry>
        </mxCell>
        <mxCell id="EWWxT-Iu7-5br_9u1XaG-6" value="Modifier" style="ellipse;whiteSpace=wrap;html=1;" vertex="1" parent="1">
          <mxGeometry x="480" y="431" width="66" height="40" as="geometry" />
        </mxCell>
        <mxCell id="EWWxT-Iu7-5br_9u1XaG-16" style="edgeStyle=orthogonalEdgeStyle;rounded=0;orthogonalLoop=1;jettySize=auto;html=1;endArrow=none;endFill=0;" edge="1" parent="1">
          <mxGeometry relative="1" as="geometry">
            <mxPoint x="220" y="350" as="targetPoint" />
            <mxPoint x="420" y="547" as="sourcePoint" />
            <Array as="points">
              <mxPoint x="220" y="547" />
            </Array>
          </mxGeometry>
        </mxCell>
        <mxCell id="EWWxT-Iu7-5br_9u1XaG-27" style="edgeStyle=orthogonalEdgeStyle;rounded=0;orthogonalLoop=1;jettySize=auto;html=1;dashed=1;endArrow=open;endFill=0;" edge="1" parent="1" source="EWWxT-Iu7-5br_9u1XaG-17" target="Tac1BlyIh8F7AcOJ1vz7-24">
          <mxGeometry relative="1" as="geometry" />
        </mxCell>
        <mxCell id="EWWxT-Iu7-5br_9u1XaG-17" value="Gestion de stock" style="ellipse;whiteSpace=wrap;html=1;" vertex="1" parent="1">
          <mxGeometry x="420" y="512" width="120" height="65" as="geometry" />
        </mxCell>
        <mxCell id="EWWxT-Iu7-5br_9u1XaG-18" style="edgeStyle=orthogonalEdgeStyle;rounded=0;orthogonalLoop=1;jettySize=auto;html=1;endArrow=none;endFill=0;" edge="1" parent="1" source="EWWxT-Iu7-5br_9u1XaG-19">
          <mxGeometry relative="1" as="geometry">
            <mxPoint x="480" y="587" as="targetPoint" />
            <Array as="points">
              <mxPoint x="420" y="597" />
              <mxPoint x="481" y="597" />
            </Array>
          </mxGeometry>
        </mxCell>
        <mxCell id="EWWxT-Iu7-5br_9u1XaG-19" value="Ajouter&amp;nbsp;" style="ellipse;whiteSpace=wrap;html=1;" vertex="1" parent="1">
          <mxGeometry x="400" y="618" width="66" height="40" as="geometry" />
        </mxCell>
        <mxCell id="EWWxT-Iu7-5br_9u1XaG-20" style="edgeStyle=orthogonalEdgeStyle;rounded=0;orthogonalLoop=1;jettySize=auto;html=1;" edge="1" parent="1" source="EWWxT-Iu7-5br_9u1XaG-21" target="EWWxT-Iu7-5br_9u1XaG-17">
          <mxGeometry relative="1" as="geometry">
            <Array as="points">
              <mxPoint x="353" y="597" />
              <mxPoint x="480" y="597" />
            </Array>
          </mxGeometry>
        </mxCell>
        <mxCell id="EWWxT-Iu7-5br_9u1XaG-21" value="Voir" style="ellipse;whiteSpace=wrap;html=1;" vertex="1" parent="1">
          <mxGeometry x="320" y="618" width="66" height="40" as="geometry" />
        </mxCell>
        <mxCell id="EWWxT-Iu7-5br_9u1XaG-22" style="edgeStyle=orthogonalEdgeStyle;rounded=0;orthogonalLoop=1;jettySize=auto;html=1;endArrow=none;endFill=0;" edge="1" parent="1" source="EWWxT-Iu7-5br_9u1XaG-23">
          <mxGeometry relative="1" as="geometry">
            <mxPoint x="480" y="577" as="targetPoint" />
            <Array as="points">
              <mxPoint x="593" y="597" />
              <mxPoint x="481" y="597" />
            </Array>
          </mxGeometry>
        </mxCell>
        <mxCell id="EWWxT-Iu7-5br_9u1XaG-23" value="Supprimer" style="ellipse;whiteSpace=wrap;html=1;" vertex="1" parent="1">
          <mxGeometry x="560" y="618" width="66" height="40" as="geometry" />
        </mxCell>
        <mxCell id="EWWxT-Iu7-5br_9u1XaG-24" style="edgeStyle=orthogonalEdgeStyle;rounded=0;orthogonalLoop=1;jettySize=auto;html=1;endArrow=none;endFill=0;" edge="1" parent="1" source="EWWxT-Iu7-5br_9u1XaG-25">
          <mxGeometry relative="1" as="geometry">
            <mxPoint x="480" y="587" as="targetPoint" />
            <Array as="points">
              <mxPoint x="520" y="597" />
              <mxPoint x="481" y="597" />
            </Array>
          </mxGeometry>
        </mxCell>
        <mxCell id="EWWxT-Iu7-5br_9u1XaG-25" value="Modifier" style="ellipse;whiteSpace=wrap;html=1;" vertex="1" parent="1">
          <mxGeometry x="480" y="618" width="66" height="40" as="geometry" />
        </mxCell>
        <mxCell id="EWWxT-Iu7-5br_9u1XaG-28" value="&amp;lt;&amp;lt;include&amp;gt;&amp;gt;" style="text;html=1;align=center;verticalAlign=middle;resizable=0;points=[];autosize=1;strokeColor=none;fillColor=none;" vertex="1" parent="1">
          <mxGeometry x="625" y="330" width="90" height="30" as="geometry" />
        </mxCell>
        <mxCell id="EWWxT-Iu7-5br_9u1XaG-29" value="&amp;lt;&amp;lt;include&amp;gt;&amp;gt;" style="text;html=1;align=center;verticalAlign=middle;resizable=0;points=[];autosize=1;strokeColor=none;fillColor=none;" vertex="1" parent="1">
          <mxGeometry x="655" y="516" width="90" height="30" as="geometry" />
        </mxCell>
        <mxCell id="EWWxT-Iu7-5br_9u1XaG-31" style="edgeStyle=orthogonalEdgeStyle;rounded=0;orthogonalLoop=1;jettySize=auto;html=1;endArrow=none;endFill=0;" edge="1" parent="1">
          <mxGeometry relative="1" as="geometry">
            <mxPoint x="220" y="548" as="targetPoint" />
            <mxPoint x="420" y="781" as="sourcePoint" />
            <Array as="points">
              <mxPoint x="220" y="781" />
            </Array>
          </mxGeometry>
        </mxCell>
        <mxCell id="EWWxT-Iu7-5br_9u1XaG-46" style="edgeStyle=orthogonalEdgeStyle;rounded=0;orthogonalLoop=1;jettySize=auto;html=1;entryX=0.926;entryY=0.266;entryDx=0;entryDy=0;entryPerimeter=0;dashed=1;endArrow=open;endFill=0;" edge="1" parent="1" source="EWWxT-Iu7-5br_9u1XaG-32" target="Tac1BlyIh8F7AcOJ1vz7-14">
          <mxGeometry relative="1" as="geometry">
            <Array as="points">
              <mxPoint x="480" y="720" />
              <mxPoint x="920" y="720" />
              <mxPoint x="920" y="360" />
            </Array>
          </mxGeometry>
        </mxCell>
        <mxCell id="EWWxT-Iu7-5br_9u1XaG-32" value="Gestion des demandes d&#39;affectations" style="ellipse;whiteSpace=wrap;html=1;" vertex="1" parent="1">
          <mxGeometry x="420" y="748" width="120" height="65" as="geometry" />
        </mxCell>
        <mxCell id="EWWxT-Iu7-5br_9u1XaG-43" style="edgeStyle=orthogonalEdgeStyle;rounded=0;orthogonalLoop=1;jettySize=auto;html=1;" edge="1" parent="1" source="EWWxT-Iu7-5br_9u1XaG-34" target="EWWxT-Iu7-5br_9u1XaG-32">
          <mxGeometry relative="1" as="geometry">
            <Array as="points">
              <mxPoint x="589" y="811" />
              <mxPoint x="589" y="781" />
            </Array>
          </mxGeometry>
        </mxCell>
        <mxCell id="EWWxT-Iu7-5br_9u1XaG-34" value="Ajouter&amp;nbsp;" style="ellipse;whiteSpace=wrap;html=1;" vertex="1" parent="1">
          <mxGeometry x="637" y="791" width="66" height="40" as="geometry" />
        </mxCell>
        <mxCell id="EWWxT-Iu7-5br_9u1XaG-42" style="edgeStyle=orthogonalEdgeStyle;rounded=0;orthogonalLoop=1;jettySize=auto;html=1;exitX=0;exitY=0.5;exitDx=0;exitDy=0;" edge="1" parent="1" source="EWWxT-Iu7-5br_9u1XaG-40" target="EWWxT-Iu7-5br_9u1XaG-32">
          <mxGeometry relative="1" as="geometry">
            <Array as="points">
              <mxPoint x="589" y="751" />
              <mxPoint x="589" y="781" />
            </Array>
          </mxGeometry>
        </mxCell>
        <mxCell id="EWWxT-Iu7-5br_9u1XaG-40" value="Accepter&amp;nbsp;" style="ellipse;whiteSpace=wrap;html=1;" vertex="1" parent="1">
          <mxGeometry x="637" y="731" width="66" height="40" as="geometry" />
        </mxCell>
        <mxCell id="EWWxT-Iu7-5br_9u1XaG-47" value="&amp;lt;&amp;lt;include&amp;gt;&amp;gt;" style="text;html=1;align=center;verticalAlign=middle;resizable=0;points=[];autosize=1;strokeColor=none;fillColor=none;" vertex="1" parent="1">
          <mxGeometry x="700" y="690" width="90" height="30" as="geometry" />
        </mxCell>
      </root>
    </mxGraphModel>
  </diagram>
</mxfile>
